<mxfile host="Electron" modified="2024-04-05T16:44:03.921Z" agent="Mozilla/5.0 (X11; Linux x86_64) AppleWebKit/537.36 (KHTML, like Gecko) draw.io/21.6.5 Chrome/114.0.5735.243 Electron/25.3.1 Safari/537.36" etag="4wKTiSbliggqat1EbO0_" version="21.6.5" type="device">
  <diagram name="Page-1" id="jYqy6KzJosBArDmEyol2">
    <mxGraphModel dx="770" dy="446" grid="1" gridSize="10" guides="1" tooltips="1" connect="1" arrows="1" fold="1" page="1" pageScale="1" pageWidth="827" pageHeight="1169" math="0" shadow="0">
      <root>
        <mxCell id="0" />
        <mxCell id="1" parent="0" />
        <mxCell id="NazhS0cYymqasRNEw74C-3" value="" style="group" vertex="1" connectable="0" parent="1">
          <mxGeometry x="200" y="840" width="40" height="40" as="geometry" />
        </mxCell>
        <mxCell id="NazhS0cYymqasRNEw74C-1" value="" style="rounded=0;whiteSpace=wrap;html=1;fillColor=#fff2cc;strokeColor=#d6b656;" vertex="1" parent="NazhS0cYymqasRNEw74C-3">
          <mxGeometry width="40" height="40" as="geometry" />
        </mxCell>
        <mxCell id="NazhS0cYymqasRNEw74C-2" value="" style="triangle;whiteSpace=wrap;html=1;rotation=-90;fillColor=#fff2cc;strokeColor=#d6b656;" vertex="1" parent="NazhS0cYymqasRNEw74C-3">
          <mxGeometry x="15" y="25" width="10" height="20" as="geometry" />
        </mxCell>
        <mxCell id="NazhS0cYymqasRNEw74C-4" value="" style="endArrow=classic;html=1;rounded=0;exitX=1;exitY=0.5;exitDx=0;exitDy=0;" edge="1" parent="1" source="NazhS0cYymqasRNEw74C-1">
          <mxGeometry width="50" height="50" relative="1" as="geometry">
            <mxPoint x="280" y="790" as="sourcePoint" />
            <mxPoint x="260" y="860" as="targetPoint" />
          </mxGeometry>
        </mxCell>
        <mxCell id="NazhS0cYymqasRNEw74C-5" value="" style="group" vertex="1" connectable="0" parent="1">
          <mxGeometry x="260" y="840" width="40" height="40" as="geometry" />
        </mxCell>
        <mxCell id="NazhS0cYymqasRNEw74C-6" value="" style="rounded=0;whiteSpace=wrap;html=1;fillColor=#fff2cc;strokeColor=#d6b656;" vertex="1" parent="NazhS0cYymqasRNEw74C-5">
          <mxGeometry width="40" height="40" as="geometry" />
        </mxCell>
        <mxCell id="NazhS0cYymqasRNEw74C-7" value="" style="triangle;whiteSpace=wrap;html=1;rotation=-90;fillColor=#fff2cc;strokeColor=#d6b656;" vertex="1" parent="NazhS0cYymqasRNEw74C-5">
          <mxGeometry x="15" y="25" width="10" height="20" as="geometry" />
        </mxCell>
        <mxCell id="NazhS0cYymqasRNEw74C-8" value="" style="endArrow=classic;html=1;rounded=0;exitX=1;exitY=0.5;exitDx=0;exitDy=0;" edge="1" parent="1" source="NazhS0cYymqasRNEw74C-6">
          <mxGeometry width="50" height="50" relative="1" as="geometry">
            <mxPoint x="340" y="790" as="sourcePoint" />
            <mxPoint x="320" y="860" as="targetPoint" />
          </mxGeometry>
        </mxCell>
        <mxCell id="NazhS0cYymqasRNEw74C-9" value="" style="group" vertex="1" connectable="0" parent="1">
          <mxGeometry x="320" y="840" width="40" height="40" as="geometry" />
        </mxCell>
        <mxCell id="NazhS0cYymqasRNEw74C-10" value="" style="rounded=0;whiteSpace=wrap;html=1;fillColor=#fff2cc;strokeColor=#d6b656;" vertex="1" parent="NazhS0cYymqasRNEw74C-9">
          <mxGeometry width="40" height="40" as="geometry" />
        </mxCell>
        <mxCell id="NazhS0cYymqasRNEw74C-11" value="" style="triangle;whiteSpace=wrap;html=1;rotation=-90;fillColor=#fff2cc;strokeColor=#d6b656;" vertex="1" parent="NazhS0cYymqasRNEw74C-9">
          <mxGeometry x="15" y="25" width="10" height="20" as="geometry" />
        </mxCell>
        <mxCell id="NazhS0cYymqasRNEw74C-12" value="" style="endArrow=classic;html=1;rounded=0;exitX=1;exitY=0.5;exitDx=0;exitDy=0;" edge="1" parent="1" source="NazhS0cYymqasRNEw74C-10">
          <mxGeometry width="50" height="50" relative="1" as="geometry">
            <mxPoint x="400" y="790" as="sourcePoint" />
            <mxPoint x="380" y="860" as="targetPoint" />
          </mxGeometry>
        </mxCell>
        <mxCell id="NazhS0cYymqasRNEw74C-13" value="" style="group" vertex="1" connectable="0" parent="1">
          <mxGeometry x="380" y="840" width="40" height="40" as="geometry" />
        </mxCell>
        <mxCell id="NazhS0cYymqasRNEw74C-14" value="" style="rounded=0;whiteSpace=wrap;html=1;fillColor=#fff2cc;strokeColor=#d6b656;" vertex="1" parent="NazhS0cYymqasRNEw74C-13">
          <mxGeometry width="40" height="40" as="geometry" />
        </mxCell>
        <mxCell id="NazhS0cYymqasRNEw74C-15" value="" style="triangle;whiteSpace=wrap;html=1;rotation=-90;fillColor=#fff2cc;strokeColor=#d6b656;" vertex="1" parent="NazhS0cYymqasRNEw74C-13">
          <mxGeometry x="15" y="25" width="10" height="20" as="geometry" />
        </mxCell>
        <mxCell id="NazhS0cYymqasRNEw74C-16" value="" style="endArrow=classic;html=1;rounded=0;exitX=1;exitY=0.5;exitDx=0;exitDy=0;" edge="1" parent="1" source="NazhS0cYymqasRNEw74C-14">
          <mxGeometry width="50" height="50" relative="1" as="geometry">
            <mxPoint x="460" y="790" as="sourcePoint" />
            <mxPoint x="440" y="860" as="targetPoint" />
          </mxGeometry>
        </mxCell>
        <mxCell id="NazhS0cYymqasRNEw74C-17" value="" style="group" vertex="1" connectable="0" parent="1">
          <mxGeometry x="440" y="840" width="40" height="40" as="geometry" />
        </mxCell>
        <mxCell id="NazhS0cYymqasRNEw74C-18" value="" style="rounded=0;whiteSpace=wrap;html=1;fillColor=#fff2cc;strokeColor=#d6b656;" vertex="1" parent="NazhS0cYymqasRNEw74C-17">
          <mxGeometry width="40" height="40" as="geometry" />
        </mxCell>
        <mxCell id="NazhS0cYymqasRNEw74C-19" value="" style="triangle;whiteSpace=wrap;html=1;rotation=-90;fillColor=#fff2cc;strokeColor=#d6b656;" vertex="1" parent="NazhS0cYymqasRNEw74C-17">
          <mxGeometry x="15" y="25" width="10" height="20" as="geometry" />
        </mxCell>
        <mxCell id="NazhS0cYymqasRNEw74C-20" value="" style="endArrow=classic;html=1;rounded=0;exitX=1;exitY=0.5;exitDx=0;exitDy=0;" edge="1" parent="1" source="NazhS0cYymqasRNEw74C-18">
          <mxGeometry width="50" height="50" relative="1" as="geometry">
            <mxPoint x="520" y="790" as="sourcePoint" />
            <mxPoint x="520" y="860" as="targetPoint" />
          </mxGeometry>
        </mxCell>
        <mxCell id="NazhS0cYymqasRNEw74C-21" value="" style="endArrow=classic;html=1;rounded=0;exitX=1;exitY=0.5;exitDx=0;exitDy=0;" edge="1" parent="1">
          <mxGeometry width="50" height="50" relative="1" as="geometry">
            <mxPoint x="160" y="860" as="sourcePoint" />
            <mxPoint x="200" y="860" as="targetPoint" />
          </mxGeometry>
        </mxCell>
        <mxCell id="NazhS0cYymqasRNEw74C-22" value="&lt;font face=&quot;Courier New&quot;&gt;i&#39;0&lt;/font&gt;" style="text;html=1;strokeColor=none;fillColor=none;align=center;verticalAlign=middle;whiteSpace=wrap;rounded=0;" vertex="1" parent="1">
          <mxGeometry x="120" y="850" width="40" height="20" as="geometry" />
        </mxCell>
        <mxCell id="NazhS0cYymqasRNEw74C-23" value="&lt;font face=&quot;Courier New&quot;&gt;o&#39;5&lt;/font&gt;" style="text;html=1;strokeColor=none;fillColor=none;align=center;verticalAlign=middle;whiteSpace=wrap;rounded=0;" vertex="1" parent="1">
          <mxGeometry x="520" y="850" width="40" height="20" as="geometry" />
        </mxCell>
      </root>
    </mxGraphModel>
  </diagram>
</mxfile>
